<?xml version="1.0" encoding="utf-8" ?>
<svg xmlns="http://www.w3.org/2000/svg" xmlns:xlink="http://www.w3.org/1999/xlink" width="60" height="181">
	<path fill="rgb(255,255,255)" stroke="none" transform="matrix(0.9994 0 0 0.9994 11.1701 8.91744)" d="M7.895 2.473L5.639 2.473C5.373 2.473 5.076 2.823 5.076 3.291L5.076 4.92L7.895 4.92L7.895 7.241L5.076 7.241L5.076 14.211L2.413 14.211L2.413 7.241L0 7.241L0 4.92L2.413 4.92L2.413 3.553C2.413 1.594 3.774 0 5.639 0L7.895 0L7.895 2.473Z"/>
	<path fill="rgb(245,148,0)" stroke="none" transform="matrix(0.9994 0 0 0.9994 41.1521 8.91744)" d="M7.895 2.473L5.639 2.473C5.373 2.473 5.076 2.823 5.076 3.291L5.076 4.92L7.895 4.92L7.895 7.241L5.076 7.241L5.076 14.211L2.413 14.211L2.413 7.241L0 7.241L0 4.92L2.413 4.92L2.413 3.553C2.413 1.594 3.774 0 5.639 0L7.895 0L7.895 2.473Z"/>
	<path fill="rgb(255,255,255)" stroke="none" transform="matrix(0.9994 0 0 0.9994 18.6129 43.0553)" d="M2.003 0L4.001 0C4.004 0.663 3.994 1.337 4.001 2C4.664 2.007 5.337 1.994 6 2L6 3.999C5.337 4.006 4.667 3.992 4.001 3.999C3.994 4.666 4.004 5.337 4.001 6L2.003 6C1.997 5.337 2.01 4.662 2.003 3.999C1.34 3.992 0.664 4.006 0 3.999L0 2C0.664 1.994 1.336 2.003 2.003 2C2.006 1.333 1.996 0.663 2.003 0"/>
	<path fill="rgb(255,255,255)" stroke="none" transform="matrix(0.9994 0 0 0.9994 5.62111 40.0569)" d="M0.0161727 5.70005C0.0691727 2.60905 2.96717 -0.0979465 6.12117 0.00505349C7.63117 -0.0639465 9.05117 0.581053 10.2092 1.48605C9.71517 2.03605 9.20417 2.56605 8.65717 3.06205C7.26617 2.11905 5.28817 1.85005 3.89717 2.93905C1.90717 4.28805 1.81617 7.47305 3.73017 8.92605C5.59117 10.5821 9.11017 9.75905 9.62417 7.22405C8.45817 7.20705 7.28917 7.22405 6.12317 7.18705C6.12117 6.50505 6.11817 5.82905 6.12117 5.14705C8.07017 5.14105 11.9712 5.14705 11.9712 5.14705C12.0882 6.75105 11.8722 8.45905 10.8662 9.78505C9.34417 11.8851 6.28717 12.4981 3.90317 11.5981C1.50917 10.7051 -0.184827 8.22705 0.0161727 5.70005"/>
	<path fill="rgb(245,148,0)" stroke="none" transform="matrix(0.9994 0 0 0.9994 48.5949 43.0553)" d="M2.003 0L4.001 0C4.004 0.663 3.994 1.337 4.001 2C4.664 2.007 5.337 1.994 6 2L6 3.999C5.337 4.006 4.001 3.999 4.001 3.999C4.001 3.999 4.004 5.337 4.001 6L2.003 6C1.997 5.337 2.01 4.662 2.003 3.999C1.34 3.992 0.664 4.006 0 3.999L0 2C0.664 1.994 2.003 2 2.003 2C2.003 2 1.996 0.663 2.003 0"/>
	<path fill="rgb(245,148,0)" stroke="none" transform="matrix(0.9994 0 0 0.9994 35.6031 40.0569)" d="M0.0161727 5.70005C0.0691727 2.60905 2.96717 -0.0979465 6.12117 0.00505349C7.63117 -0.0639465 9.05117 0.581053 10.2092 1.48605C9.71517 2.03605 9.20417 2.56605 8.65717 3.06205C7.26617 2.11905 5.28817 1.85005 3.89717 2.93905C1.90717 4.28805 1.81617 7.47305 3.73017 8.92605C5.59117 10.5821 9.11017 9.75905 9.62417 7.22405C8.45817 7.20705 7.28917 7.22405 6.12317 7.18705C6.12117 6.50505 6.11817 5.82905 6.12117 5.14705C8.07017 5.14105 11.9712 5.14705 11.9712 5.14705C12.0882 6.75105 11.8722 8.45905 10.8662 9.78505C9.34417 11.8851 6.28717 12.4981 3.90317 11.5981C1.50917 10.7051 -0.184827 8.22705 0.0161727 5.70005"/>
	<path fill="rgb(255,255,255)" stroke="none" transform="matrix(0.9994 0 0 0.9994 7.12 67.5405)" d="M4.70163 0.0481333C5.5549 0.0092 5.82733 0 8.00003 0C10.1727 0 10.4451 0.0092 11.2984 0.0481333C12.1499 0.0869667 12.7314 0.222233 13.2403 0.42C13.7664 0.624433 14.2125 0.897967 14.6573 1.3427C15.102 1.7875 15.3756 2.23363 15.58 2.7597C15.7778 3.26857 15.913 3.8501 15.9519 4.7016C15.9908 5.5549 16 5.82733 16 8C16 10.1727 15.9908 10.4451 15.9519 11.2984C15.913 12.1499 15.7778 12.7314 15.58 13.2403C15.3756 13.7664 15.102 14.2125 14.6573 14.6573C14.2125 15.102 13.7664 15.3756 13.2403 15.58C12.7314 15.7778 12.1499 15.913 11.2984 15.9519C10.4451 15.9908 10.1727 16 8.00003 16C5.82733 16 5.5549 15.9908 4.70163 15.9519C3.8501 15.913 3.26857 15.7778 2.7597 15.58C2.23363 15.3756 1.7875 15.102 1.3427 14.6573C0.897967 14.2125 0.624433 13.7664 0.42 13.2403C0.222233 12.7314 0.0869667 12.1499 0.0481333 11.2984C0.0092 10.4451 0 10.1727 0 8C0 5.82733 0.0092 5.5549 0.0481333 4.7016C0.0869667 3.8501 0.222233 3.26857 0.42 2.7597C0.624433 2.23363 0.897967 1.7875 1.3427 1.3427C1.7875 0.897967 2.23363 0.624433 2.7597 0.42C3.26857 0.222233 3.8501 0.0869667 4.70163 0.0481333ZM11.2327 1.4881C10.3891 1.4496 10.1361 1.44143 8.00003 1.44143C5.8639 1.44143 5.61087 1.4496 4.7673 1.4881C3.98733 1.52367 3.56373 1.65397 3.28183 1.76353C2.9084 1.90867 2.64193 2.08203 2.36197 2.362C2.08203 2.6419 1.90867 2.9084 1.76353 3.28183C1.65397 3.56373 1.52367 3.98733 1.4881 4.7673C1.4496 5.61087 1.44143 5.8639 1.44143 8C1.44143 10.1361 1.4496 10.3891 1.4881 11.2327C1.52367 12.0127 1.65397 12.4363 1.76353 12.7182C1.90867 13.0916 2.08207 13.3581 2.36197 13.638C2.64193 13.918 2.9084 14.0913 3.28183 14.2365C3.56373 14.346 3.98733 14.4763 4.7673 14.5119C5.61077 14.5504 5.86373 14.5586 8.00003 14.5586C10.1363 14.5586 10.3892 14.5504 11.2327 14.5119C12.0127 14.4763 12.4363 14.346 12.7182 14.2365C13.0916 14.0913 13.3581 13.918 13.638 13.638C13.918 13.3581 14.0913 13.0916 14.2365 12.7182C14.346 12.4363 14.4763 12.0127 14.5119 11.2327C14.5504 10.3891 14.5586 10.1361 14.5586 8C14.5586 5.8639 14.5504 5.61087 14.5119 4.7673C14.4763 3.98733 14.346 3.56373 14.2365 3.28183C14.0913 2.9084 13.918 2.6419 13.638 2.362C13.3581 2.08203 13.0916 1.90867 12.7182 1.76353C12.4363 1.65397 12.0127 1.52367 11.2327 1.4881Z" fill-rule="evenodd"/>
	<path fill="rgb(255,255,255)" stroke="none" transform="matrix(0.9994 0 0 0.9994 11.0096 71.43)" d="M0 4.1081C0 1.83923 1.83923 0 4.10813 0C6.37697 0 8.2162 1.83923 8.2162 4.1081C8.2162 6.37697 6.37697 8.2162 4.10813 8.2162C1.83923 8.2162 0 6.37697 0 4.1081ZM1.44143 4.1081C1.44143 5.58087 2.63533 6.77477 4.10813 6.77477C5.58087 6.77477 6.77477 5.58087 6.77477 4.1081C6.77477 2.63533 5.58087 1.44143 4.10813 1.44143C2.63533 1.44143 1.44143 2.63533 1.44143 4.1081Z" fill-rule="evenodd"/>
	<path fill="rgb(255,255,255)" stroke="none" transform="matrix(0.9994 0 0 0.9994 18.4236 70.3084)" d="M1.92 0.960033C1.92 1.49023 1.4902 1.92 0.959967 1.92C0.4298 1.92 0 1.49023 0 0.960033C0 0.429833 0.4298 0 0.959967 0C1.4902 0 1.92 0.429833 1.92 0.960033L1.92 0.960033Z"/>
	<path fill="rgb(245,148,0)" stroke="none" transform="matrix(0.9994 0 0 0.9994 37.102 67.5405)" d="M4.70163 0.0481333C5.5549 0.0092 5.82733 0 8.00003 0C10.1727 0 10.4451 0.0092 11.2984 0.0481333C12.1499 0.0869667 12.7314 0.222233 13.2403 0.42C13.7664 0.624433 14.2125 0.897967 14.6573 1.3427C15.102 1.7875 15.3756 2.23363 15.58 2.7597C15.7778 3.26857 15.913 3.8501 15.9519 4.7016C15.9908 5.5549 16 5.82733 16 8C16 10.1727 15.9908 10.4451 15.9519 11.2984C15.913 12.1499 15.7778 12.7314 15.58 13.2403C15.3756 13.7664 15.102 14.2125 14.6573 14.6573C14.2125 15.102 13.7664 15.3756 13.2403 15.58C12.7314 15.7778 12.1499 15.913 11.2984 15.9519C10.4451 15.9908 10.1727 16 8.00003 16C5.82733 16 5.5549 15.9908 4.70163 15.9519C3.8501 15.913 3.26857 15.7778 2.7597 15.58C2.23363 15.3756 1.7875 15.102 1.3427 14.6573C0.897967 14.2125 0.624433 13.7664 0.42 13.2403C0.222233 12.7314 0.0869667 12.1499 0.0481333 11.2984C0.0092 10.4451 0 10.1727 0 8C0 5.82733 0.0092 5.5549 0.0481333 4.7016C0.0869667 3.8501 0.222233 3.26857 0.42 2.7597C0.624433 2.23363 0.897967 1.7875 1.3427 1.3427C1.7875 0.897967 2.23363 0.624433 2.7597 0.42C3.26857 0.222233 3.8501 0.0869667 4.70163 0.0481333ZM11.2327 1.4881C10.3891 1.4496 10.1361 1.44143 8.00003 1.44143C5.8639 1.44143 5.61087 1.4496 4.7673 1.4881C3.98733 1.52367 3.56373 1.65397 3.28183 1.76353C2.9084 1.90867 2.64193 2.08203 2.36197 2.362C2.08203 2.6419 1.90867 2.9084 1.76353 3.28183C1.65397 3.56373 1.52367 3.98733 1.4881 4.7673C1.4496 5.61087 1.44143 5.8639 1.44143 8C1.44143 10.1361 1.4496 10.3891 1.4881 11.2327C1.52367 12.0127 1.65397 12.4363 1.76353 12.7182C1.90867 13.0916 2.08207 13.3581 2.36197 13.638C2.64193 13.918 2.9084 14.0913 3.28183 14.2365C3.56373 14.346 3.98733 14.4763 4.7673 14.5119C5.61077 14.5504 5.86373 14.5586 8.00003 14.5586C10.1363 14.5586 10.3892 14.5504 11.2327 14.5119C12.0127 14.4763 12.4363 14.346 12.7182 14.2365C13.0916 14.0913 13.3581 13.918 13.638 13.638C13.918 13.3581 14.0913 13.0916 14.2365 12.7182C14.346 12.4363 14.4763 12.0127 14.5119 11.2327C14.5504 10.3891 14.5586 10.1361 14.5586 8C14.5586 5.8639 14.5504 5.61087 14.5119 4.7673C14.4763 3.98733 14.346 3.56373 14.2365 3.28183C14.0913 2.9084 13.918 2.6419 13.638 2.362C13.3581 2.08203 13.0916 1.90867 12.7182 1.76353C12.4363 1.65397 12.0127 1.52367 11.2327 1.4881Z" fill-rule="evenodd"/>
	<path fill="rgb(245,148,0)" stroke="none" transform="matrix(0.9994 0 0 0.9994 40.9916 71.43)" d="M0 4.1081C0 1.83923 1.83923 0 4.10813 0C6.37697 0 8.2162 1.83923 8.2162 4.1081C8.2162 6.37697 6.37697 8.2162 4.10813 8.2162C1.83923 8.2162 0 6.37697 0 4.1081ZM1.44143 4.1081C1.44143 5.58087 2.63533 6.77477 4.10813 6.77477C5.58087 6.77477 6.77477 5.58087 6.77477 4.1081C6.77477 2.63533 5.58087 1.44143 4.10813 1.44143C2.63533 1.44143 1.44143 2.63533 1.44143 4.1081Z" fill-rule="evenodd"/>
	<path fill="rgb(245,148,0)" stroke="none" transform="matrix(0.9994 0 0 0.9994 48.4057 70.3084)" d="M1.92 0.960033C1.92 1.49023 1.4902 1.92 0.959967 1.92C0.4298 1.92 0 1.49023 0 0.960033C0 0.429833 0.4298 0 0.959967 0C1.4902 0 1.92 0.429833 1.92 0.960033L1.92 0.960033Z"/>
	<path fill="rgb(255,255,255)" stroke="none" transform="matrix(0.9994 0 0 0.9994 7.12 97.5225)" d="M8.00047 0C3.58253 0 0 3.58158 0 8.00047C0 11.2754 1.97001 14.0902 4.78956 15.3273C4.76698 14.7694 4.78579 14.0977 4.92785 13.49C5.08214 12.8408 5.95708 9.1313 5.95708 9.1313C5.95708 9.1313 5.70212 8.62045 5.70212 7.865C5.70212 6.6796 6.38984 5.79432 7.24502 5.79432C7.97225 5.79432 8.3241 6.34092 8.3241 6.99571C8.3241 7.7267 7.85747 8.82084 7.61757 9.83407C7.41718 10.6836 8.04281 11.3751 8.88011 11.3751C10.3957 11.3751 11.4165 9.42859 11.4165 7.12177C11.4165 5.36908 10.2358 4.05668 8.08796 4.05668C5.66167 4.05668 4.14982 5.86582 4.14982 7.88663C4.14982 8.5847 4.35491 9.07579 4.67666 9.45587C4.82531 9.6318 4.84506 9.70142 4.79144 9.90275C4.75381 10.0486 4.66537 10.4042 4.62868 10.5444C4.57506 10.7466 4.41136 10.82 4.22885 10.7448C3.11025 10.2885 2.58999 9.0645 2.58999 7.68813C2.58999 5.41612 4.50638 2.68972 8.30717 2.68972C11.3619 2.68972 13.3724 4.90151 13.3724 7.27324C13.3724 10.4117 11.6282 12.7562 9.05509 12.7562C8.19239 12.7562 7.37955 12.2895 7.10108 11.7599C7.10108 11.7599 6.63633 13.6029 6.53848 13.9585C6.36914 14.5747 6.03704 15.1919 5.73317 15.6717C6.45287 15.8843 7.21303 16 8.00047 16C12.4184 16 16 12.4184 16 8.00047C16 3.58158 12.4184 0 8.00047 0"/>
	<path fill="rgb(245,148,0)" stroke="none" transform="matrix(0.9994 0 0 0.9994 37.102 97.5225)" d="M8.00047 0C3.58253 0 0 3.58158 0 8.00047C0 11.2754 1.97001 14.0902 4.78956 15.3273C4.76698 14.7694 4.78579 14.0977 4.92785 13.49C5.08214 12.8408 5.95708 9.1313 5.95708 9.1313C5.95708 9.1313 5.70212 8.62045 5.70212 7.865C5.70212 6.6796 6.38984 5.79432 7.24502 5.79432C7.97225 5.79432 8.3241 6.34092 8.3241 6.99571C8.3241 7.7267 7.85747 8.82084 7.61757 9.83407C7.41718 10.6836 8.04281 11.3751 8.88011 11.3751C10.3957 11.3751 11.4165 9.42859 11.4165 7.12177C11.4165 5.36908 10.2358 4.05668 8.08796 4.05668C5.66167 4.05668 4.14982 5.86582 4.14982 7.88663C4.14982 8.5847 4.35491 9.07579 4.67666 9.45587C4.82531 9.6318 4.84506 9.70142 4.79144 9.90275C4.75381 10.0486 4.66537 10.4042 4.62868 10.5444C4.57506 10.7466 4.41136 10.82 4.22885 10.7448C3.11025 10.2885 2.58999 9.0645 2.58999 7.68813C2.58999 5.41612 4.50638 2.68972 8.30717 2.68972C11.3619 2.68972 13.3724 4.90151 13.3724 7.27324C13.3724 10.4117 11.6282 12.7562 9.05509 12.7562C8.19239 12.7562 7.37955 12.2895 7.10108 11.7599C7.10108 11.7599 6.63633 13.6029 6.53848 13.9585C6.36914 14.5747 6.03704 15.1919 5.73317 15.6717C6.45287 15.8843 7.21303 16 8.00047 16C12.4184 16 16 12.4184 16 8.00047C16 3.58158 12.4184 0 8.00047 0"/>
	<path fill="rgb(255,255,255)" stroke="none" transform="matrix(0.9994 0 0 0.9994 7.91852 130.151)" d="M12.927 2.914C12.932 3.041 12.936 3.168 12.936 3.297C12.936 7.201 9.963 11.703 4.529 11.703C2.861 11.703 1.307 11.213 0 10.375C0.233 10.402 0.468 10.416 0.706 10.416C2.09 10.416 3.364 9.943 4.375 9.15C3.082 9.127 1.992 8.273 1.614 7.1C1.795 7.135 1.981 7.152 2.171 7.152C2.44 7.152 2.701 7.117 2.949 7.049C1.598 6.777 0.578 5.584 0.578 4.152L0.578 4.115C0.977 4.336 1.434 4.469 1.918 4.484C1.125 3.955 0.604 3.051 0.604 2.025C0.604 1.484 0.749 0.977 1.003 0.541C2.459 2.328 4.637 3.504 7.092 3.627C7.042 3.41 7.017 3.185 7.017 2.953C7.017 1.322 8.339 0 9.971 0C10.82 0 11.588 0.357 12.126 0.932C12.8 0.801 13.432 0.555 14.003 0.215C13.782 0.906 13.315 1.484 12.703 1.85C13.301 1.779 13.871 1.621 14.402 1.385C14.004 1.977 13.504 2.498 12.927 2.914"/>
	<path fill="rgb(245,148,0)" stroke="none" transform="matrix(0.9994 0 0 0.9994 37.9005 130.151)" d="M12.927 2.914C12.932 3.041 12.936 3.168 12.936 3.297C12.936 7.201 9.963 11.703 4.529 11.703C2.861 11.703 1.307 11.213 0 10.375C0.233 10.402 0.468 10.416 0.706 10.416C2.09 10.416 3.364 9.943 4.375 9.15C3.082 9.127 1.992 8.273 1.614 7.1C1.795 7.135 1.981 7.152 2.171 7.152C2.44 7.152 2.701 7.117 2.949 7.049C1.598 6.777 0.578 5.584 0.578 4.152L0.578 4.115C0.977 4.336 1.434 4.469 1.918 4.484C1.125 3.955 0.604 3.051 0.604 2.025C0.604 1.484 0.749 0.977 1.003 0.541C2.459 2.328 4.637 3.504 7.092 3.627C7.042 3.41 7.017 3.185 7.017 2.953C7.017 1.322 8.339 0 9.971 0C10.82 0 11.588 0.357 12.126 0.932C12.8 0.801 13.432 0.555 14.003 0.215C13.782 0.906 13.315 1.484 12.703 1.85C13.301 1.779 13.871 1.621 14.402 1.385C14.004 1.977 13.504 2.498 12.927 2.914"/>
	<path fill="rgb(255,255,255)" stroke="none" transform="matrix(0.9994 0 0 0.9994 6.6497 159.985)" d="M16.0984 0.895188C16.6061 1.41289 16.7718 2.58853 16.7718 2.58853C16.7718 2.58853 16.9412 3.96943 16.9412 5.3498L16.9412 6.64433C16.9412 8.02524 16.7718 9.40561 16.7718 9.40561C16.7718 9.40561 16.6061 10.5812 16.0984 11.0989C15.4541 11.7787 14.7319 11.7819 14.4011 11.8219C12.0304 11.9947 8.47059 12 8.47059 12C8.47059 12 4.06588 11.9595 2.71059 11.8283C2.33365 11.7574 1.48712 11.7787 0.842294 11.0989C0.334588 10.5812 0.169412 9.40561 0.169412 9.40561C0.169412 9.40561 0 8.02524 0 6.64433L0 5.3498C0 3.96943 0.169412 2.58853 0.169412 2.58853C0.169412 2.58853 0.334588 1.41289 0.842294 0.895188C1.48712 0.2154 2.20871 0.212201 2.54012 0.172746C4.91082 0 8.46688 0 8.46688 0L8.47429 0C8.47429 0 12.0304 0 14.4011 0.172746C14.7319 0.212201 15.4541 0.2154 16.0984 0.895188ZM6.72089 3.41919L6.72142 8.2129L11.2982 5.82431L6.72089 3.41919Z" fill-rule="evenodd"/>
	<path fill="rgb(245,148,0)" stroke="none" transform="matrix(0.9994 0 0 0.9994 36.6317 159.985)" d="M16.0984 0.895188C16.6061 1.41289 16.7718 2.58853 16.7718 2.58853C16.7718 2.58853 16.9412 3.96943 16.9412 5.3498L16.9412 6.64433C16.9412 8.02524 16.7718 9.40561 16.7718 9.40561C16.7718 9.40561 16.6061 10.5812 16.0984 11.0989C15.4541 11.7787 14.7319 11.7819 14.4011 11.8219C12.0304 11.9947 8.47059 12 8.47059 12C8.47059 12 4.06588 11.9595 2.71059 11.8283C2.33365 11.7574 1.48712 11.7787 0.842294 11.0989C0.334588 10.5812 0.169412 9.40561 0.169412 9.40561C0.169412 9.40561 0 8.02524 0 6.64433L0 5.3498C0 3.96943 0.169412 2.58853 0.169412 2.58853C0.169412 2.58853 0.334588 1.41289 0.842294 0.895188C1.48712 0.2154 2.20871 0.212201 2.54012 0.172746C4.91082 0 8.46688 0 8.46688 0L8.47429 0C8.47429 0 12.0304 0 14.4011 0.172746C14.7319 0.212201 15.4541 0.2154 16.0984 0.895188ZM6.72089 3.41919L6.72142 8.2129L11.2982 5.82431L6.72089 3.41919Z" fill-rule="evenodd"/>
</svg>
